<svg xmlns="http://www.w3.org/2000/svg" width="458" height="105.461" viewBox="0 0 458 105.461">
  <defs>
    <style>
      .cls-1 {
        font-size: 19px;
        font-family: PillGothic300mg-Bold, 'Pill Gothic \33 00mg';
        font-weight: 700;
        letter-spacing: 0.035em;
      }

      .cls-2 {
        fill: #bf1e2e;
      }
    </style>
  </defs>
  <g id="Group_50" data-name="Group 50" transform="translate(-72 -98.254)">
    <text id="The_official_newspaper_of_the_Choctaw_Nation_of_Oklahoma" data-name="The official newspaper of the Choctaw Nation of Oklahoma" class="cls-1" transform="translate(72 198.715)"><tspan x="0" y="0">The official newspaper of the Choctaw Nation of Oklahoma</tspan></text>
    <g id="Group_49" data-name="Group 49" transform="translate(66.778 86.258)">
      <path id="Path_166" data-name="Path 166" d="M52.251,50.23A15.969,15.969,0,0,1,58.9,53.283,18.055,18.055,0,0,1,65.71,65.962a19.268,19.268,0,0,1-3.252,13.11,17.732,17.732,0,0,1-10.07,6.991,32.757,32.757,0,0,1-9.245,1.1q-17.762.028-35.524.007h-1.4V15.359H7.41c12.534,0,25.068-.055,37.6.026A19.531,19.531,0,0,1,59.764,21.5a17.269,17.269,0,0,1,4.5,14.367,16.177,16.177,0,0,1-2.991,7.954,15.272,15.272,0,0,1-7.986,5.759l-1.064.322ZM21.221,73.956a1.531,1.531,0,0,0,.32.1c7.132-.027,14.269.073,21.4-.147a7.222,7.222,0,0,0,6.832-4.65,8.6,8.6,0,0,0-.984-8.787c-1.9-2.558-4.666-3.374-7.691-3.394-6.37-.043-12.74-.014-19.11-.01a6.755,6.755,0,0,0-.763.088ZM21.18,44.019a3.039,3.039,0,0,0,.441.084c6.668,0,13.338.086,20-.037a7.748,7.748,0,0,0,7.3-9.656,7.871,7.871,0,0,0-8.109-6.246c-6.195-.019-12.389-.006-18.585,0-.346,0-.691.044-1.048.068Z" transform="translate(0 -2.162)"/>
      <path id="Path_167" data-name="Path 167" d="M851.251,60.405V15.45h14.957V87.127c-.412.018-.767.048-1.122.048-4.045,0-8.09-.009-12.135.013a1.73,1.73,0,0,1-1.627-.783q-8-11.043-16.075-22.03-7.827-10.7-15.661-21.389c-.578-.789-1.146-1.585-1.735-2.366a6.682,6.682,0,0,0-.767-.672V41.6q0,22.09.024,44.18c0,1.085-.24,1.44-1.379,1.42-4.08-.071-8.162-.028-12.244-.028h-1.309V85.894c0-8.712.011-17.424-.018-26.136a2.418,2.418,0,0,1,.806-1.9c2.551-2.5,5.041-5.063,7.6-7.556.672-.655.734-1.07.027-1.758-2.638-2.566-5.23-5.181-7.8-7.814a2.1,2.1,0,0,1-.586-1.3c-.034-7.764-.024-15.529-.02-23.293,0-.213.044-.427.082-.768h1.087c4.446,0,8.892.015,13.337-.017a1.549,1.549,0,0,1,1.425.734q6.937,9.462,13.918,18.893,8.87,12.02,17.742,24.039c.376.509.745,1.024,1.117,1.536Z" transform="translate(-514.413 -2.166)"/>
      <path id="Path_168" data-name="Path 168" d="M286.96,74.919l7.924-11.127c1.752,1.368,3.4,2.787,5.173,4.012a30,30,0,0,0,13.614,5.1,26.545,26.545,0,0,0,9.271-.253c2.891-.669,5.519-1.847,6.967-4.7a5.88,5.88,0,0,0-1.926-7.7,26.576,26.576,0,0,0-7.948-3.114c-4.993-1.353-10.046-2.5-14.987-4.022a25.286,25.286,0,0,1-11.165-6.529,17.145,17.145,0,0,1-4.654-10.532,19.673,19.673,0,0,1,4.763-15.13,23.58,23.58,0,0,1,10.024-6.74,36.2,36.2,0,0,1,15.515-2.07c6.53.49,12.821,1.992,18.488,5.439,2.1,1.274,4.041,2.792,6.132,4.254L336,32.528c-2.448-1.489-4.762-3.109-7.258-4.368a30.33,30.33,0,0,0-16.074-2.966,9.54,9.54,0,0,0-6.328,2.539c-3.161,3.156-2.634,7.559,1.4,9.454a49.945,49.945,0,0,0,8.213,2.768c5.38,1.458,10.881,2.491,16.056,4.655a26.349,26.349,0,0,1,8.385,5.187,17.346,17.346,0,0,1,5.266,10.945,22.734,22.734,0,0,1-2.2,12.7,20.859,20.859,0,0,1-10.748,9.877c-5.923,2.611-12.193,3.117-18.546,2.8-8.734-.436-16.836-2.834-23.862-8.249C289.161,76.982,288.127,75.953,286.96,74.919Z" transform="translate(-181.441 0)"/>
      <path id="Path_169" data-name="Path 169" d="M516,47.665a8.491,8.491,0,0,0,1.086-.757c.861-.885,1.679-1.811,2.54-2.7,2.841-2.924,5.7-5.83,8.541-8.754q5.7-5.873,11.388-11.766c2.42-2.514,4.789-5.078,7.241-7.56a2.632,2.632,0,0,1,1.676-.716c5.355-.053,10.711-.032,16.068-.032h1.165L531.647,48.991,569.242,87.2H567.99c-5.283,0-10.567-.018-15.849.019a2.417,2.417,0,0,1-1.9-.791Q536.5,72.64,522.749,58.876c-.716-.72-1.047-.776-1.714.1-1.38,1.814-2.964,3.471-4.384,5.256a3.064,3.064,0,0,0-.63,1.755c-.044,6.633-.027,13.266-.027,19.9v1.244H501.136c-.022-.325-.069-.706-.069-1.087,0-8.638-.013-17.276.024-25.914a2.379,2.379,0,0,1,.616-1.5q4.117-4.23,8.336-8.36c.656-.643.648-1.052,0-1.69q-4.215-4.132-8.344-8.353a2.09,2.09,0,0,1-.607-1.289c-.035-7.654-.023-15.307-.019-22.962,0-.142.021-.284.038-.507H516Z" transform="translate(-319.815 -2.187)"/>
      <path id="Path_170" data-name="Path 170" d="M1161.334,15.3c-1.366,1.272-2.5,2.278-3.58,3.346-3.7,3.672-7.365,7.376-11.065,11.048Q1139.863,36.467,1133,43.2c-1.685,1.658-3.385,3.3-5.113,4.916-.585.547-.612.914-.024,1.5,2.469,2.471,4.879,5,7.333,7.49q9.4,9.529,18.826,19.04,5.1,5.17,10.18,10.367c.123.126.228.27.454.539-.479.023-.82.052-1.161.052-5.284,0-10.568-.018-15.852.023a2.543,2.543,0,0,1-1.986-.849q-13.7-13.747-27.418-27.475c-.687-.69-1.016-.856-1.708.07-1.343,1.8-2.921,3.414-4.311,5.178a3.412,3.412,0,0,0-.724,1.931c-.052,6.6-.032,13.2-.032,19.794v1.26c-.4.028-.72.068-1.036.068-4.227,0-8.455-.029-12.681.026-1,.013-1.2-.328-1.2-1.254.033-8.129.008-16.258.046-24.387a2.374,2.374,0,0,1,.627-1.5q4.78-4.884,9.658-9.669c.747-.728.681-1.117-.026-1.81-3.255-3.186-6.464-6.421-9.657-9.67a2.085,2.085,0,0,1-.6-1.289c-.036-7.181-.026-14.363-.024-21.544,0-.179.025-.359.045-.626h14.844V47.636a13.293,13.293,0,0,0,1.291-.988c1.731-1.769,3.438-3.56,5.16-5.337q6-6.2,12.008-12.386c3.644-3.765,7.429-7.408,10.852-11.364a6.327,6.327,0,0,1,5.628-2.3c4.478.148,8.963.044,13.446.044Z" transform="translate(-704.676 -2.102)"/>
      <path id="Path_171" data-name="Path 171" d="M1031.608,87.339H1026.2c-2.7,0-5.394-.046-8.089.023-1.033.027-1.373-.24-1.361-1.321.055-5.139.025-10.279.025-15.419V15.6h14.9v1.151c0,7.29.014,14.581-.029,21.871a2.529,2.529,0,0,1-.667,1.586q-4.154,4.271-8.418,8.435c-.709.692-.774,1.113-.027,1.839,2.874,2.794,5.694,5.645,8.5,8.506a2.09,2.09,0,0,1,.612,1.285c.035,8.821.025,17.643.022,26.464C1031.67,86.879,1031.641,87.023,1031.608,87.339Z" transform="translate(-653.101 -2.327)"/>
      <path id="Path_172" data-name="Path 172" d="M216.839,15.6h14.783V87.259h-14.8c-.019-.393-.054-.779-.055-1.165,0-8.38-.016-16.76.028-25.14a2.681,2.681,0,0,1,.7-1.685q4.339-4.468,8.8-8.822c.7-.687.649-1.1-.023-1.759q-4.448-4.36-8.8-8.815a2.255,2.255,0,0,1-.671-1.377c-.041-7.4-.029-14.792-.025-22.188C216.769,16.094,216.81,15.881,216.839,15.6Z" transform="translate(-136.072 -2.328)"/>
      <path id="Path_173" data-name="Path 173" d="M718.318,15.591h14.837v1.121c0,6.962-.009,13.925.013,20.887a2.181,2.181,0,0,1-.694,1.72c-3.165,3.123-6.279,6.3-9.45,9.414-.654.643-.657,1.034,0,1.678,3.146,3.09,6.236,6.237,9.374,9.336a2.3,2.3,0,0,1,.776,1.8c-.028,8.165-.018,16.33-.017,24.5v1.225c-.362.029-.608.066-.854.066-4.336,0-8.673-.017-13.009.019-.823.007-1.053-.254-1.052-1.063q.028-34.994.017-69.987C718.257,16.088,718.293,15.873,718.318,15.591Z" transform="translate(-460.176 -2.323)"/>
      <path id="Path_174" data-name="Path 174" d="M460.376,224.5c-.452,1.732-1.673,1.515-2.827,1.515q-224.432-.007-448.863,0c-.438,0-.875-.011-1.312,0-.548.013-.907-.132-.913-.787-.006-.631.283-.851.868-.816.254.015.51,0,.765,0q225.361,0,450.722,0C459.341,224.41,459.868,224.469,460.376,224.5Z" transform="translate(-0.154 -137.278)"/>
      <path id="Path_175" data-name="Path 175" class="cls-2" d="M1065.346,91.5l7.889,7.92-8,8-7.928-7.954Z" transform="translate(-679.315 -51.385)"/>
      <path id="Path_176" data-name="Path 176" class="cls-2" d="M765.658,107.343l-7.936-7.884,8-7.954,7.93,7.889Z" transform="translate(-485.694 -51.387)"/>
      <path id="Path_177" data-name="Path 177" class="cls-2" d="M180.131,107.163,172.2,99.226l7.933-7.866,7.884,7.874Z" transform="translate(-107.271 -51.293)"/>
      <path id="Path_178" data-name="Path 178" class="cls-2" d="M473.039,99.354l-7.931,7.965-7.835-7.887,7.963-7.855Z" transform="translate(-291.514 -51.433)"/>
    </g>
  </g>
</svg>
